REM DIRINDEX 1\6,1\2\7,1\2\8,1\2\9,1\3\10,1\3\11,1\4\12,1\4\13,1\4\14,1\5\15,1\5\16,1\5\17
REM DIRNAME cjc041,folder01,folder02,folder03,folder04,folder05,folder06,folder07,folder08,folder09,folder10,folder11,folder12,folder13,folder14,folder15,folder16
TITLE ""
FILE "3Q_t_0078-0093.mp3" MP3
  TRACK 01 AUDIO
    TITLE "10:cjc041_1760"
    INDEX 01 00:00:00
  TRACK 02 AUDIO
    TITLE "0:"
    INDEX 01 00:01:07
  TRACK 03 AUDIO
    TITLE "11:cjc041_1761"
    INDEX 01 00:01:62
  TRACK 04 AUDIO
    TITLE "0:"
    INDEX 01 00:02:57
  TRACK 05 AUDIO
    TITLE "10:cjc041_1762"
    INDEX 01 00:03:33
  TRACK 06 AUDIO
    TITLE "0:"
    INDEX 01 00:04:54
  TRACK 07 AUDIO
    TITLE "11:cjc041_1763"
    INDEX 01 00:05:30
  TRACK 08 AUDIO
    TITLE "0:"
    INDEX 01 00:06:20
  TRACK 09 AUDIO
    TITLE "10:cjc041_1764"
    INDEX 01 00:07:00
  TRACK 10 AUDIO
    TITLE "0:"
    INDEX 01 00:08:03
  TRACK 11 AUDIO
    TITLE "11:cjc041_1765"
    INDEX 01 00:08:58
  TRACK 12 AUDIO
    TITLE "0:"
    INDEX 01 00:09:59
  TRACK 13 AUDIO
    TITLE "10:cjc041_1766"
    INDEX 01 00:10:37
  TRACK 14 AUDIO
    TITLE "0:"
    INDEX 01 00:11:48
  TRACK 15 AUDIO
    TITLE "11:cjc041_1767"
    INDEX 01 00:12:32
  TRACK 16 AUDIO
    TITLE "0:"
    INDEX 01 00:13:28
  TRACK 17 AUDIO
    TITLE "10:cjc041_1768"
    INDEX 01 00:14:07
  TRACK 18 AUDIO
    TITLE "0:"
    INDEX 01 00:15:30
  TRACK 19 AUDIO
    TITLE "11:cjc041_1769"
    INDEX 01 00:16:08
  TRACK 20 AUDIO
    TITLE "0:"
    INDEX 01 00:17:29
  TRACK 21 AUDIO
    TITLE "10:cjc041_1770"
    INDEX 01 00:18:05
  TRACK 22 AUDIO
    TITLE "0:"
    INDEX 01 00:19:32
  TRACK 23 AUDIO
    TITLE "11:cjc041_1771"
    INDEX 01 00:20:04
  TRACK 24 AUDIO
    TITLE "0:"
    INDEX 01 00:21:23
  TRACK 25 AUDIO
    TITLE "10:cjc041_1772"
    INDEX 01 00:21:72
  TRACK 26 AUDIO
    TITLE "0:"
    INDEX 01 00:22:72
  TRACK 27 AUDIO
    TITLE "11:cjc041_1773"
    INDEX 01 00:23:53
  TRACK 28 AUDIO
    TITLE "0:"
    INDEX 01 00:24:57
  TRACK 29 AUDIO
    TITLE "10:cjc041_1774"
    INDEX 01 00:25:33
  TRACK 30 AUDIO
    TITLE "0:"
    INDEX 01 00:26:56
  TRACK 31 AUDIO
    TITLE "11:cjc041_1775"
    INDEX 01 00:27:36
  TRACK 32 AUDIO
    TITLE "0:"
    INDEX 01 00:28:47
  TRACK 33 AUDIO
    TITLE "10:cjc041_1776"
    INDEX 01 00:29:23
  TRACK 34 AUDIO
    TITLE "0:"
    INDEX 01 00:30:22
  TRACK 35 AUDIO
    TITLE "11:cjc041_1777"
    INDEX 01 00:31:00
  TRACK 36 AUDIO
    TITLE "0:"
    INDEX 01 00:32:11
  TRACK 37 AUDIO
    TITLE "10:cjc041_1778"
    INDEX 01 00:32:60
  TRACK 38 AUDIO
    TITLE "0:"
    INDEX 01 00:34:16
  TRACK 39 AUDIO
    TITLE "11:cjc041_1779"
    INDEX 01 00:34:65
  TRACK 40 AUDIO
    TITLE "0:"
    INDEX 01 00:36:03
  TRACK 41 AUDIO
    TITLE "10:cjc041_1780"
    INDEX 01 00:36:58
  TRACK 42 AUDIO
    TITLE "0:"
    INDEX 01 00:37:73
  TRACK 43 AUDIO
    TITLE "11:cjc041_1781"
    INDEX 01 00:38:51
  TRACK 44 AUDIO
    TITLE "0:"
    INDEX 01 00:39:60
  TRACK 45 AUDIO
    TITLE "10:cjc041_1782"
    INDEX 01 00:40:38
  TRACK 46 AUDIO
    TITLE "0:"
    INDEX 01 00:41:69
  TRACK 47 AUDIO
    TITLE "11:cjc041_1783"
    INDEX 01 00:42:47
  TRACK 48 AUDIO
    TITLE "0:"
    INDEX 01 00:43:42
  TRACK 49 AUDIO
    TITLE "10:cjc041_1784"
    INDEX 01 00:44:16
  TRACK 50 AUDIO
    TITLE "0:"
    INDEX 01 00:45:26
  TRACK 51 AUDIO
    TITLE "11:cjc041_1785"
    INDEX 01 00:46:11
  TRACK 52 AUDIO
    TITLE "0:"
    INDEX 01 00:48:22
  TRACK 53 AUDIO
    TITLE "10:cjc041_1786"
    INDEX 01 00:49:02
  TRACK 54 AUDIO
    TITLE "0:"
    INDEX 01 00:50:15
  TRACK 55 AUDIO
    TITLE "11:cjc041_1787"
    INDEX 01 00:50:72
  TRACK 56 AUDIO
    TITLE "0:"
    INDEX 01 00:51:65
  TRACK 57 AUDIO
    TITLE "10:cjc041_1788"
    INDEX 01 00:52:43
  TRACK 58 AUDIO
    TITLE "0:"
    INDEX 01 00:53:57
  TRACK 59 AUDIO
    TITLE "11:cjc041_1789"
    INDEX 01 00:54:30
  TRACK 60 AUDIO
    TITLE "0:"
    INDEX 01 00:55:42
  TRACK 61 AUDIO
    TITLE "10:cjc041_1790"
    INDEX 01 00:56:18
  TRACK 62 AUDIO
    TITLE "0:"
    INDEX 01 00:57:19
  TRACK 63 AUDIO
    TITLE "11:cjc041_1791"
    INDEX 01 00:58:05
  TRACK 64 AUDIO
    TITLE "0:"
    INDEX 01 00:59:06
